<svg width="24" height="24" viewBox="0 0 24 24" fill="none" xmlns="http://www.w3.org/2000/svg">
<path d="M6.73497 10.7422C6.73415 10.7053 6.73292 8.69278 6.73292 8.65379C6.73292 6.08301 8.98687 4 11.5325 4C14.0777 4 16.0539 6.1249 16.0539 8.69568C16.0539 8.73426 16.0503 10.8724 16.0503 10.9098H18.1282V20H5V10.8886H13.0952H14.0051" stroke="#9BA4B1" stroke-linecap="round" stroke-linejoin="round"/>
<path fill-rule="evenodd" clip-rule="evenodd" d="M12.3842 15.0769C12.3842 15.5304 12.0171 15.8974 11.5637 15.8974C11.1102 15.8974 10.7432 15.5304 10.7432 15.0769C10.7432 14.6235 11.1102 14.2564 11.5637 14.2564C12.0171 14.2564 12.3842 14.6235 12.3842 15.0769Z" fill="#9BA4B1"/>
<path fill-rule="evenodd" clip-rule="evenodd" d="M11.1543 15.4433C11.1543 15.2453 11.3239 15.0769 11.5557 15.0769C11.7869 15.0769 11.9748 15.2382 11.9748 15.4361V17.1793C11.9748 17.3772 11.7869 17.5385 11.5557 17.5385C11.3239 17.5385 11.1543 17.3874 11.1543 17.1894V15.4433Z" fill="#9BA4B1"/>
</svg>
