<svg width="298" height="45" viewBox="0 0 298 45" fill="none" xmlns="http://www.w3.org/2000/svg">
<path fill-rule="evenodd" clip-rule="evenodd" d="M168.306 12.8973H185.048V16.5823H183.847C183.847 16.5823 183.686 14.6597 181.684 14.6597H178.8V31.8828H174.714V14.7398H171.67C170.068 14.7398 169.587 16.0215 169.507 16.6624H168.306V12.8973H168.306Z" fill="white"/>
<path fill-rule="evenodd" clip-rule="evenodd" d="M203.313 12.8973H206.357V31.9629H202.351V18.6651L192.258 31.9629H189.214V16.5021C189.214 14.2591 187.291 13.9387 187.291 13.9387V12.9774H193.219V26.3554L203.313 12.8973V12.8973Z" fill="white"/>
<path fill-rule="evenodd" clip-rule="evenodd" d="M115.835 32.043H110.548L106.863 24.9935C106.863 24.9935 105.742 22.8306 104.54 22.8306H103.098V32.043H99.0125V16.5021C99.0125 14.2591 96.9297 14.0989 96.9297 14.0989V12.9774H103.098V20.9081H104.94C104.94 20.9081 106.142 20.828 107.183 19.1457C110.388 13.8586 109.987 12.8973 111.429 12.8973H115.435V14.179C112.631 14.179 111.83 19.9468 109.106 21.7091C110.388 22.1898 110.949 23.4715 113.832 28.7586C113.832 28.7586 114.553 30.6011 115.995 30.6011V32.043H115.835V32.043Z" fill="white"/>
<path fill-rule="evenodd" clip-rule="evenodd" d="M215.009 20.5876H224.862V19.6263C224.862 16.9027 222.619 14.7398 219.975 14.7398C217.252 14.7398 215.089 16.9828 215.089 19.6263V20.5876H215.009ZM228.387 27.8774C226.464 30.521 223.66 32.2833 219.895 32.2833C214.929 32.2833 210.042 28.3581 210.042 23.1511V22.1097C210.042 16.5021 214.448 12.657 219.895 12.657C225.343 12.657 229.588 17.0629 229.588 22.4301H215.009V25.5543C215.009 28.278 217.252 30.4409 220.456 30.4409C223.26 30.4409 225.182 29.2392 226.704 27.6371L228.387 27.8774V27.8774Z" fill="white"/>
<path fill-rule="evenodd" clip-rule="evenodd" d="M130.094 12.657C127.771 12.657 125.608 13.6183 124.487 15.0602V12.8973H118.398V14.0188C118.398 14.0188 120.321 14.3392 120.321 16.422V40.6145H124.407V30.0403C126.329 32.2833 128.812 32.3634 129.694 32.3634C135.061 32.2833 138.666 28.1177 138.666 22.9909V21.7892C138.666 16.1817 135.301 12.657 130.094 12.657V12.657ZM133.859 25.4742C133.859 27.8774 132.097 30.2005 129.533 30.2806H129.133C126.81 30.2806 124.807 28.5183 124.567 26.7559V18.5849C124.727 16.6624 126.73 14.5796 129.133 14.5796H129.934C129.934 14.5796 133.779 14.7398 133.859 19.386V25.4742V25.4742Z" fill="white"/>
<path fill-rule="evenodd" clip-rule="evenodd" d="M67.2098 12.657C60.0802 12.657 57.1162 18.2645 57.1162 21.8693V23.4715C57.1162 27.7172 61.2017 32.3634 67.2098 32.3634C72.8173 32.3634 77.3834 28.2779 77.3834 23.3914V22.1097C77.3834 17.2231 73.6184 12.657 67.2098 12.657V12.657ZM72.4969 25.314C72.4969 28.0376 70.334 30.521 67.2098 30.521C64.0856 30.521 62.0028 28.1177 62.0028 25.314V19.2258C62.0028 16.5021 64.3259 14.4193 67.2098 14.4193C70.334 14.4193 72.4969 16.6624 72.4969 19.3059V25.314V25.314Z" fill="white"/>
<path fill-rule="evenodd" clip-rule="evenodd" d="M165.502 12.8973H159.414V14.0188C159.414 14.0188 161.497 14.3392 161.497 16.5823V32.043H165.502V12.8973V12.8973Z" fill="white"/>
<path fill-rule="evenodd" clip-rule="evenodd" d="M147.718 20.2672V13.0575H141.63V14.179C141.63 14.179 143.472 14.3392 143.472 16.5823V32.043H152.845C156.45 32.043 159.093 29.8 159.093 26.6758V25.7946C159.093 22.35 156.53 20.1871 152.605 20.1871C152.605 20.2672 147.718 20.2672 147.718 20.2672V20.2672ZM147.718 30.1204V22.1898H151.243C153.165 22.1898 154.687 23.6317 154.687 25.8747V26.6758C154.687 28.5183 152.925 30.1204 151.163 30.1204H147.718V30.1204Z" fill="white"/>
<path fill-rule="evenodd" clip-rule="evenodd" d="M78.1045 12.8973H94.847V16.5823H93.6454C93.6454 16.5823 93.4852 14.6597 91.4825 14.6597H88.5185V31.8828H84.433V14.7398H81.3889C79.7868 14.7398 79.3061 16.0215 79.226 16.6624H78.0244V12.9774H78.1045V12.8973Z" fill="white"/>
<path fill-rule="evenodd" clip-rule="evenodd" d="M22.2699 0.320435C9.93333 0.320435 0 10.2538 0 22.5102C0 34.7667 9.93333 44.7801 22.2699 44.7801C34.6065 44.7801 44.5398 34.8468 44.5398 22.5102C44.4597 10.2538 34.5263 0.320435 22.2699 0.320435V0.320435ZM17.5435 33.4048C17.7038 33.4849 18.3446 33.8855 18.4247 34.6065C18.5048 35.1672 18.4247 35.6479 18.1844 36.0484C17.864 36.6091 17.3032 36.8495 16.5823 36.8495C16.2618 36.8495 15.8613 36.7694 15.5409 36.6091L14.4194 36.1285C9.93333 33.7253 7.04946 28.9188 7.04946 23.4715V21.2285C7.04946 15.7812 9.85323 10.9747 14.4194 8.57151C14.4995 8.57151 15.3806 8.09086 15.3806 8.09086C15.7011 7.93065 16.1016 7.85054 16.422 7.85054C17.143 7.85054 17.7038 8.17097 18.0242 8.65162C18.2645 9.05215 18.3446 9.5328 18.2645 10.0936C18.1043 10.9747 17.3032 11.3753 17.3032 11.3753C14.6597 12.5769 12.9774 15.3005 12.9774 18.3446V26.4355C13.1376 29.3995 14.8199 32.2032 17.5435 33.4048V33.4048ZM37.25 23.6317C37.25 29.079 34.4462 33.8855 29.8801 36.2887L28.8387 36.7694C28.5183 36.9296 28.1177 37.0097 27.7973 37.0097C27.0763 37.0097 26.5957 36.6893 26.1952 36.2086C25.9548 35.728 25.8747 35.3274 25.9548 34.7667C26.1151 34.0457 26.6758 33.6452 26.836 33.5651C29.5597 32.3634 31.2419 29.6398 31.2419 26.5957V18.7452C31.2419 15.7011 29.4796 12.9774 26.9161 11.7758C26.9161 11.7758 26.1151 11.3753 25.9548 10.4941C25.8747 9.93334 25.9548 9.45269 26.1952 9.05215C26.5156 8.4914 27.0763 8.25108 27.7973 8.25108C28.1177 8.25108 28.5183 8.33119 28.8387 8.4914L29.8 8.97205C34.3661 11.3753 37.1699 16.2618 37.1699 21.629V23.872H37.25V23.6317Z" fill="#0AB9E2"/>
<path fill-rule="evenodd" clip-rule="evenodd" d="M259.548 22.6704H258.186V26.5957H259.388C260.91 26.5957 261.871 25.9548 261.871 24.5129C261.791 23.3914 260.99 22.6704 259.548 22.6704M259.308 28.0376H256.584V16.8226H262.432L262.672 18.1844H258.186V21.3086H259.628C262.031 21.3086 263.393 22.4301 263.393 24.5129C263.393 26.9161 261.711 28.0376 259.308 28.0376" fill="white"/>
<path fill-rule="evenodd" clip-rule="evenodd" d="M268.28 23.3113H271.885L270.043 18.5849L268.28 23.3113V23.3113ZM269.322 16.8226H270.844L275.17 27.8774L273.728 28.1978L272.446 24.7532H267.88L266.678 28.1177H265.076L269.322 16.8226V16.8226Z" fill="white"/>
<path fill-rule="evenodd" clip-rule="evenodd" d="M284.862 28.0376V22.8306H279.174V28.0376H277.652V16.8226H279.174V21.4688H284.862V16.8226H286.384V28.0376H284.862Z" fill="white"/>
<path fill-rule="evenodd" clip-rule="evenodd" d="M295.757 16.8226L291.191 21.8693V16.8226H289.589V28.0376H291.191V22.35L296.398 28.1177L298 27.7973L292.793 22.0296L297.76 16.8226H295.757Z" fill="white"/>
<path fill-rule="evenodd" clip-rule="evenodd" d="M242.245 0.320435H243.046V44.7801H242.245V0.320435Z" fill="white"/>
</svg>
